<?xml version="1.0" encoding="utf-8"?>
<!DOCTYPE svg PUBLIC "-//W3C//DTD SVG 1.1//EN" "http://www.w3.org/Graphics/SVG/1.1/DTD/svg11.dtd">
<svg version="1.1" id="Layer_1" xmlns="http://www.w3.org/2000/svg" xmlns:xlink="http://www.w3.org/1999/xlink" x="0px" y="0px"
	 viewBox="0 0 1452.0959 1634.3822" enable-background="new 0 0 1452.0959 1634.3822" xml:space="preserve">
<path d="M1403.5144,1245.6139c-6.0626-11.7388-12.5115-23.2841-19.83-34.2739c-9.1785-13.4052-19.2504-26.1582-29.9746-38.3557
	c-17.5354-17.7046-38.259-31.9551-57.606-47.6066c-5.4587-4.3235-11.0382-8.4779-16.6902-12.5115
	c-10.9897-7.6084-21.3999-16.1829-32.9937-22.8733c-29.8536-21.4242-61.6639-40.0225-93.6431-58.041
	c-19.6127-10.9656-39.5151-21.3757-59.8281-30.9647c-16.1587-7.7532-32.4141-15.3858-48.9592-22.2453
	c-13.8398-5.9902-27.7281-11.9318-41.9304-16.98c-31.2304-12.584-63.4029-22.8009-95.6237-32.5829
	c-34.2738-10.1447-68.9824-18.8157-103.9808-26.0375c5.3862,5.3378,12.5356,8.1636,19.0571,11.8833
	c20.9894,10.9417,40.9402,23.8879,62.1469,34.3462l0.5073,0.0242c2.1979,3.4782,6.2315,4.9999,9.5889,7.1013
	c19.6852,11.4729,38.9354,23.7188,57.8718,36.4235c19.0571,12.5839,37.4863,26.0616,55.6014,39.9982
	c9.4681,7.874,18.5257,16.2552,28.1871,23.936c3.9128,4.71,8.5503,8.7919,12.6565,13.3569l-2.1014,0.4829
	c-20.6995-3.7438-41.4956-7.0286-62.2678-10.3618c-34.8293-6.7871-70.0451-12.6564-105.5748-13.3328
	c-8.9852-0.6278-18.1876-1.8356-27.0519,0.5315c25.0955,13.5017,51.1813,25.1195,77.0497,37.0756
	c-23.3566,3.623-46.7855,7.0769-69.6588,13.1879c-14.8545,2.6326-29.1049,7.9222-43.4039,12.5598
	c-2.7534-2.8984-5.5069-5.7969-8.2604-8.647c-39.0562-43.9594-96.2758-69.7554-154.4857-74.3445
	c9.1541,5.0964,19.3228,8.4055,27.7523,14.8302c22.4869,14.5405,39.8291,39.7567,39.1769,67.2916
	c0,11.8837,1.1111,25.0713-6.3524,35.24c-13.5984,15.9655-30.1918,29.2982-48.5485,39.4427
	c-4.8307,2.4635-10.3378,4.0336-14.4921,7.5842c-11.014,2.7534-21.4,7.6083-32.5349,10.0236
	c-27.1002,7.1737-55.2632,8.6711-83.1363,9.2025c-37.1723-1.5941-74.3445-6.5215-110.0917-17.004
	c-11.9319-4.2268-23.1389-10.6276-32.728-18.8639c28.8151-2.198,57.6544-5.4829,85.9864-11.3522
	c30.7233-6.7147,61.7123-14.4921,89.8028-28.9358c-58.9587,1.5698-118.8835,0.314-175.9583-16.2795
	c-25.8443-8.0189-50.7705-19.202-72.9194-34.8535c-31.955-27.704-49.273-73.644-36.8099-114.9948
	c15.7723,21.8589,31.8585,43.6937,51.1089,62.6542l0.4588,0.0725c24.2018,24.9504,55.553,47.4133,91.6867,47.7755
	c-10.0961-9.2509-21.8347-16.545-31.5928-26.2064c-18.4773-18.6708-32.8729-44.1285-29.902-71.1805
	c3.7197-18.0184,13.9124-33.9597,24.4675-48.7661c24.2502-29.9017,58.0893-50.7465,94.247-63.1611
	c27.221-7.8499,55.0941-13.2603,82.8948-18.7673c19.4919-3.9854,39.1287-7.2702,58.6206-11.2553
	c5.1205-0.8456,10.2894-1.4978,15.5065-1.6909c-18.3566,22.3661-46.3989,33.1869-73.4749,40.7469
	c14.1055,1.8599,28.332,2.0288,42.5342,2.1255c44.998-0.5558,89.6336-8.0672,133.1099-19.3712
	c20.3613-4.251,38.4765-14.8544,57.4129-22.9458c33.7183-15.0959,67.2916-30.5059,100.7683-46.1331
	c16.835-8.1158,34.467-14.7097,50.3359-24.7332c41.689-24.1777,80.407-54.6594,109.8501-93.1119
	c4.42-5.8691,9.3958-11.5454,11.9318-18.5739c0.6281-0.9182,1.8599-2.7535,2.4879-3.6714l1.2559-0.5555
	c1.6426-2.3187,3.3092-4.6376,4.9756-6.9082c3.7681,5.314,7.1979,10.8932,10.4827,16.5696
	c10.3136,19.0569,19.1538,38.9835,25.8444,59.6107c8.333,24.0084,13.3086,49.2249,15.5306,74.5621
	c1.3042,11.0377,1.4734,22.1486,1.4491,33.2591c0.4108,29.8295-4.9272,59.5626-14.0089,87.9188
	c50.5291-36.3028,92.0973-87.5806,108.1593-148.4957c4.4442-18.0909,7.1252-36.6168,7.3668-55.2393
	c0.797-27.1727-4.3959-54.0794-11.811-80.0928c-5.5311-18.4291-13.0912-36.1335-20.9894-53.6448
	c-12.2217-25.6513-26.3516-50.4086-42.5826-73.7165c-17.3905-26.9554-37.0032-52.3646-57.3403-77.1219
	c-5.024-6.2076-11.0624-11.7631-14.468-19.1058c23.9603,7.1013,47.051,16.7627,69.7312,27.1727
	c21.7623,9.565,41.7855,22.4629,62.8232,33.4286c20.5546,14.1298,42.027,27.5106,62.0503,42.6549
	c30.8682,22.7288,59.1278,48.6938,88.1361,73.6198c-15.6997-40.7466-37.752-78.9576-63.5962-114.1011
	c-4.7582-6.8112-10.0237-13.2119-15.3134-19.5881c-37.8485-47.0752-84.7787-86.2765-135.5735-118.6906
	c-3.5748-3.0434-10.7-3.9367-11.6661-8.9367c26.5688-6.1593,53.7657-9.2026,80.4795-14.6852
	c0.8212-0.1209,2.4635-0.3623,3.2848-0.4832c24.4192-3.6956,48.8384-7.6081,73.3541-10.6756
	c16.3521-2.6813,33.0903-2.6088,49.2249-6.5213c-16.4485-2.15-33.0177-4.4686-49.5872-4.8307
	c-12.0768-2.0775-24.3467-2.6088-36.52-3.5991c-29.0084-1.3766-58.1858-5.6519-87.0975-4.903
	c-1.3285-0.2659-3.9852-0.8214-5.3379-1.1113l-1.9806,1.5459l-2.2704-1.8115c-34.8293-1.0143-69.6827-3.3332-104.5122-2.9709
	c2.4878-1.3286,4.9756-2.681,7.7533-3.3815c101.7345-28.5977,203.7346-56.4709,306.9667-79.1991
	c19.5403-3.7439,39.2252-7.0529,58.6931-11.2076c-12.5598-2.0046-25.4579-1.9563-38.0901-0.8934
	c-26.1825,0-52.3165-2.0049-78.4989-0.1451c-24.1051-1.5217-48.1621,1.0384-72.2672,0.9178
	c-45.3604,1.8599-90.7446,4.1785-135.9601,8.5985c-66.6394,5.6763-132.965,15.0959-198.6865,27.4386l-0.3382,1.3041
	c-1.6666-0.2657-4.9998-0.8211-6.6664-1.0868c4.8549-12.9462,22.4869-12.2699,28.0179-24.5642
	c-54.9732,9.3474-110.0433,18.9124-164.0988,32.7765c-13.4052,2.6085-26.134,7.8982-39.5392,10.4584
	c3.2124-19.4676,20.9412-33.0421,38.9354-38.4041c23.0667-6.3763,47.0027-8.985,70.19-14.8783
	c-18.4773-6.0867-37.317-11.1834-56.5674-14.0333c15.2408-21.9316,35.0951-40.2156,54.5145-58.403
	c36.5443-33.0421,77.2912-61.0359,114.6084-93.1602c-96.5898,28.4771-188.3489,73.161-271.3163,130.1632
	c-39.1045,27.2207-76.7597,56.664-111.4201,89.3921c-28.8392-5.676-57.8958-10.7968-87.2666-12.7048
	c-13.8399-0.7005-27.7281,0.8211-41.2782,3.623c-37.2206,8.0672-69.3931,33.9838-87.5564,67.1223
	c25.7234-14.5404,52.3889-30.5056,82.6774-32.1723c13.0188-1.4492,23.4771,7.6567,34.6362,12.7773
	c9.5889,4.42,18.9362,13.5259,17.7528,24.8779c-4.8791,10.2894-18.9122,9.3235-25.1439,18.1151
	c-29.8295,35.0226-68.4267,65.6977-114.5358,74.6827c-12.7772,1.9563-24.4675,9.4441-32.3174,19.5885
	c-4.9756,6.4491-3.8887,15.0476-3.9853,22.6801c-23.284,10.0963-46.6404,20.1198-70.5766,28.5977
	c-8.357,2.9225-17.0524,4.8791-25.0955,8.6713c-9.8545,1.2318-19.7092,3.9126-29.2257,6.8112
	c-27.0278,18.7673-46.3264,50.8671-44.4183,84.4166c6.8113,16.98,23.3806,27.1969,37.0274,38.3555
	c13.9848,7.2219,31.3512,9.9999,46.0607,3.1884c24.2501-10.6517,39.2253-33.6698,59.7799-49.2974l-0.0725-0.3381
	c8.9368-6.787,18.719-12.1976,29.1775-16.1586c22.2936-11.6905,47.7515-16.98,72.847-15.9415
	c28.1629,2.8986,56.1809,7.198,84.2232,11.0625l1.9565,0.1692c28.4286,5.217,57.7993,7.0043,86.4695,2.7775
	c14.6129-2.681,30.2402-5.3378,41.8097-15.458c29.3706-21.3519,46.6162-56.447,49.4905-92.2665
	c25.6993,14.9512,46.7371,37.2448,60.9152,63.3065l1.4975,0.2654c0.5555,1.3044,1.6182,3.9131,2.1495,5.2172
	c3.5507,8.4298,7.536,16.7143,10.5552,25.3853c1.4733,4.0096,2.4877,8.4537,5.7968,11.4971
	c7.2944-35.4333-5.3138-70.7212-10.1445-105.599c8.1157,3.4057,15.0477,8.8886,22.1005,14.0814
	c10.386,7.9224,19.6609,17.1492,29.4915,25.7477c-5.2414-10.4342-11.9318-20.0956-18.3568-29.8053
	c-8.8885-14.5163-18.4533-28.598-27.4141-43.0659c1.4249-2.0288,2.8501-4.0334,4.275-6.0384
	c28.3563,1.739,57.0266,11.8111,76.9774,32.7039c9.2025,9.8548,17.7044,20.6272,23.2115,33.0176
	c7.1493,20.0475,3.4539,42.462-6.8597,60.7464c-9.0817,13.5739-18.9121,26.9067-31.3512,37.6791
	c-8.0673,6.0867-16.6901,11.4246-25.0955,17.0767c-63.8618,39.2736-138.1097,59.0068-212.3333,65.6249
	c-30.7717,3.0434-61.7363,2.6088-92.6288,2.4879c-53.669-1.5698-106.9034-9.6856-159.244-21.3997
	c31.2788,29.4188,68.596,55.2388,111.7099,62.5815c-43.3072,26.9551-95.527,32.0759-145.0175,37.7519
	c-35.0709,20.4579-68.6443,43.5969-100.5028,68.8375c-15.6756,12.5842-30.9164,25.7236-45.3844,39.7085l0.0242,2.4153
	c-3.5747-0.3626-8.5503,4.6131-8.1881,8.212l-2.7052,0.1209c-31.1339,32.5105-58.9346,69.0789-76.301,110.8643
	c-7.077,16.5696-11.3278,34.1049-16.6658,51.2781c-5.8693,21.2551-7.9464,43.4521-7.1495,65.4559
	c1.0869,26.0858,8.1639,51.4227,15.2409,76.3976l0.5556,0.1207c10.9898,34.7085,25.4094,68.3544,41.9788,100.7201
	c5.5553-33.2836,9.6614-66.7844,14.637-100.1647c0.1931-3.5746,3.8887-5.0963,6.1833-7.1976
	c21.1343,29.5638,36.3993,63.2581,44.5149,98.6912c12.5598,57.4128,10.2169,117.6034-3.6714,174.5332
	c-7.8741,32.4139-21.6174,62.944-37.4863,92.1456c41.0369-25.3612,72.5814-63.7169,96.0343-105.4059
	c13.3569-30.2885,26.6655-60.6012,39.9258-90.938c5.4104-10.9172,9.758-22.2937,14.9992-33.2834
	c22.9218,13.9366,45.8434,27.8489,69.3689,40.6744c43.283,24.5159,87.8463,47.196,134.7281,64.0551
	c15.4583,5.1448,31.0615,10.5309,47.3409,12.2217c-11.3522-8.5503-24.2984-14.5886-36.0612-22.5111
	c-11.8594-9.0333-26.4965-16.7141-33.0903-30.6748c17.1731,6.0142,33.6216,13.9607,50.8673,19.8783l0.0483,0.3864
	c27.0518,11.2073,53.9106,22.8251,80.89,34.1531c3.2849,2.174,7.2219,3.1158,10.9175,4.4443
	c1.9804,2.8259,4.5408,3.6713,7.6324,2.5361l0.4106,1.7147c5.4829,1.9807,11.8836,6.3524,16.98,6.7872
	c25.3854,13.7916,52.3889,24.8298,76.6632,40.6987c15.9172,9.5889,30.8682,20.6028,45.9158,31.4961
	c22.6077,17.3905,43.6454,36.7374,63.2097,57.5094c22.0764,25.0472,41.8823,52.2682,57.0748,82.1219
	c3.1882-48.4036-11.328-96.5415-35.3608-138.1821c-18.9604-31.3513-42.4859-60.1664-69.9968-84.3441l0.0483-0.2898
	c-8.1157-7.6566-16.4969-15.0476-25.168-22.028c-22.7284-18.8156-46.8819-35.8679-72.0016-51.302l0.314-0.3864
	c-4.2027-2.3914-8.3571-4.855-12.4631-7.3669c9.0092-2.1738,18.0184-4.42,27.1968-5.8693l-1.1111-0.7729
	c27.9698-5.8209,55.9154-13.5017,82.0494-25.2163c2.6086-1.2559,5.2172-2.5118,7.8259-3.7196
	c2.4394,4.9756,4.9514,9.9755,7.5601,14.9269c14.7819,26.0618,35.0226,49.2732,60.1421,65.8182
	c19.2504,12.6083,40.5055,22.173,62.7026,28.2355l0.0966,0.2656c19.6851,5.3622,39.9016,8.2365,60.1422,10.5551
	c24.0568,1.1837,48.0654,3.5265,72.1707,2.7294c44.7806-1.0386,90.6238-5.6034,132.3611-22.8733
	c-36.0853,0.4832-72.219,2.2705-108.3043,1.3285c-17.004-1.8357-34.0322-4.1544-50.9155-6.3041
	c-13.3086-4.8549-27.3176-7.9224-39.9982-14.4921c-12.0768-5.2655-22.173-13.7676-33.2594-20.6512
	c-2.0772-3.0675-4.1785-6.1108-6.1591-9.1543c3.7679,0.5315,7.5601,1.1354,11.3279,1.8115l0.6763,0.7488
	c6.618,1.8357,13.4052,2.8501,20.2164,3.8163c22.1005,2.1497,44.4183-0.5797,65.2386-8.3088
	c20.144-3.8163,30.3851-24.6608,32.3415-43.3313c-15.3133,8.1396-30.2402,18.1635-47.5098,21.569
	c-10.9658,0.7006-21.4001-3.6953-31.5687-7.2218c-7.246-3.9852-13.8641-8.9369-20.0233-14.4196
	c-5.8209-7.6569-13.0911-15.7482-12.2941-26.0618c1.087-15.1925,10.7724-28.1145,20.7478-38.9354
	c10.9658-8.5261,23.9604-13.9849,36.7859-19.1053c25.6752-8.8884,53.0894-12.0768,80.1654-11.0624
	c38.9836,0.0966,77.1703,9.7581,113.8837,22.1246c6.4731,3.5747,13.5742,5.8694,20.3856,8.7195
	c8.5021,3.9611,17.1007,7.7532,25.3127,12.3182c15.0477,9.8063,28.0182,22.7285,37.6312,37.921
	c16.8833,26.0133,23.1149,57.123,25.7959,87.5806c12.5356-17.5354,25.7477-35.5056,32.1241-56.3501
	c13.4535,14.3472,23.8395,31.5686,31.3754,49.7321c6.3523,15.3374,11.2073,31.2787,14.2748,47.5823
	c6.8354,37.7761,5.7244,76.9048-3.4781,114.1736l-0.4105,0.2416c-7.5118,28.4044-21.9072,54.442-39.5153,77.8226
	c42.2446-33.8633,78.4265-76.3492,100.9133-125.8639c12.4631-26.3757,19.2021-55.1908,18.9604-84.3923
	c0.7006-28.7185-2.8259-57.5336-10.4584-85.2136C1417.2819,1277.3514,1411.0503,1261.1687,1403.5144,1245.6139z M484.8604,371.9819
	c17.7044-9.1543,36.351-16.4245,55.6496-21.3758c7.4877-1.8599,15.0718-3.261,22.6802-4.6617
	c-27.8973,25.0955-58.21,47.7999-82.6534,76.47c-20.2406,0.3621-40.4571,0.0242-60.6736,0.1693c-1.4008,0-4.2027,0-5.6277,0
	C435.5148,402.8256,459.0645,385.3869,484.8604,371.9819z"/>
</svg>
